<svg width="25" height="16" viewBox="0 0 25 16" fill="none" xmlns="http://www.w3.org/2000/svg">
<path fill-rule="evenodd" clip-rule="evenodd" d="M0.5 1C0.5 0.447715 0.947715 0 1.5 0H23.5C24.0523 0 24.5 0.447715 24.5 1C24.5 1.55228 24.0523 2 23.5 2H1.5C0.947716 2 0.5 1.55228 0.5 1ZM0.5 8C0.5 7.44772 0.947715 7 1.5 7H23.5C24.0523 7 24.5 7.44772 24.5 8C24.5 8.55229 24.0523 9 23.5 9H1.5C0.947716 9 0.5 8.55229 0.5 8ZM1.5 14C0.947715 14 0.5 14.4477 0.5 15C0.5 15.5523 0.947716 16 1.5 16H23.5C24.0523 16 24.5 15.5523 24.5 15C24.5 14.4477 24.0523 14 23.5 14H1.5Z" fill="black"/>
</svg>
